<svg id="mermaid-1601562699638" width="100%" xmlns="http://www.w3.org/2000/svg" xmlns:xlink="http://www.w3.org/1999/xlink" height="711" style="max-width: 668.28125px;" viewBox="-20 -20 668.28125 711"><style>#mermaid-1601562699638{font-family:"trebuchet ms",verdana,arial;font-size:16px;fill:#333;}#mermaid-1601562699638 .error-icon{fill:#552222;}#mermaid-1601562699638 .error-text{fill:#552222;stroke:#552222;}#mermaid-1601562699638 .edge-thickness-normal{stroke-width:2px;}#mermaid-1601562699638 .edge-thickness-thick{stroke-width:3.5px;}#mermaid-1601562699638 .edge-pattern-solid{stroke-dasharray:0;}#mermaid-1601562699638 .edge-pattern-dashed{stroke-dasharray:3;}#mermaid-1601562699638 .edge-pattern-dotted{stroke-dasharray:2;}#mermaid-1601562699638 .marker{fill:#333333;}#mermaid-1601562699638 .marker.cross{stroke:#333333;}#mermaid-1601562699638 svg{font-family:"trebuchet ms",verdana,arial;font-size:16px;}#mermaid-1601562699638 g.classGroup text{fill:#9370DB;fill:#131300;stroke:none;font-family:"trebuchet ms",verdana,arial;font-size:10px;}#mermaid-1601562699638 g.classGroup text .title{font-weight:bolder;}#mermaid-1601562699638 .classTitle{font-weight:bolder;}#mermaid-1601562699638 .node rect,#mermaid-1601562699638 .node circle,#mermaid-1601562699638 .node ellipse,#mermaid-1601562699638 .node polygon,#mermaid-1601562699638 .node path{fill:#ECECFF;stroke:#9370DB;stroke-width:1px;}#mermaid-1601562699638 .divider{stroke:#9370DB;stroke:1;}#mermaid-1601562699638 g.clickable{cursor:pointer;}#mermaid-1601562699638 g.classGroup rect{fill:#ECECFF;stroke:#9370DB;}#mermaid-1601562699638 g.classGroup line{stroke:#9370DB;stroke-width:1;}#mermaid-1601562699638 .classLabel .box{stroke:none;stroke-width:0;fill:#ECECFF;opacity:0.5;}#mermaid-1601562699638 .classLabel .label{fill:#9370DB;font-size:10px;}#mermaid-1601562699638 .relation{stroke:#333333;stroke-width:1;fill:none;}#mermaid-1601562699638 .dashed-line{stroke-dasharray:3;}#mermaid-1601562699638 #compositionStart,#mermaid-1601562699638 .composition{fill:#333333 !important;stroke:#333333 !important;stroke-width:1;}#mermaid-1601562699638 #compositionEnd,#mermaid-1601562699638 .composition{fill:#333333 !important;stroke:#333333 !important;stroke-width:1;}#mermaid-1601562699638 #dependencyStart,#mermaid-1601562699638 .dependency{fill:#333333 !important;stroke:#333333 !important;stroke-width:1;}#mermaid-1601562699638 #dependencyStart,#mermaid-1601562699638 .dependency{fill:#333333 !important;stroke:#333333 !important;stroke-width:1;}#mermaid-1601562699638 #extensionStart,#mermaid-1601562699638 .extension{fill:#333333 !important;stroke:#333333 !important;stroke-width:1;}#mermaid-1601562699638 #extensionEnd,#mermaid-1601562699638 .extension{fill:#333333 !important;stroke:#333333 !important;stroke-width:1;}#mermaid-1601562699638 #aggregationStart,#mermaid-1601562699638 .aggregation{fill:#ECECFF !important;stroke:#333333 !important;stroke-width:1;}#mermaid-1601562699638 #aggregationEnd,#mermaid-1601562699638 .aggregation{fill:#ECECFF !important;stroke:#333333 !important;stroke-width:1;}#mermaid-1601562699638 .edgeTerminals{font-size:11px;}#mermaid-1601562699638:root{--mermaid-font-family:"trebuchet ms",verdana,arial;}#mermaid-1601562699638 class{fill:apa;}</style><g></g><defs><marker id="extensionStart" class="extension" refX="0" refY="7" markerWidth="190" markerHeight="240" orient="auto"><path d="M 1,7 L18,13 V 1 Z"></path></marker></defs><defs><marker id="extensionEnd" refX="19" refY="7" markerWidth="20" markerHeight="28" orient="auto"><path d="M 1,1 V 13 L18,7 Z"></path></marker></defs><defs><marker id="compositionStart" class="extension" refX="0" refY="7" markerWidth="190" markerHeight="240" orient="auto"><path d="M 18,7 L9,13 L1,7 L9,1 Z"></path></marker></defs><defs><marker id="compositionEnd" refX="19" refY="7" markerWidth="20" markerHeight="28" orient="auto"><path d="M 18,7 L9,13 L1,7 L9,1 Z"></path></marker></defs><defs><marker id="aggregationStart" class="extension" refX="0" refY="7" markerWidth="190" markerHeight="240" orient="auto"><path d="M 18,7 L9,13 L1,7 L9,1 Z"></path></marker></defs><defs><marker id="aggregationEnd" refX="19" refY="7" markerWidth="20" markerHeight="28" orient="auto"><path d="M 18,7 L9,13 L1,7 L9,1 Z"></path></marker></defs><defs><marker id="dependencyStart" class="extension" refX="0" refY="7" markerWidth="190" markerHeight="240" orient="auto"><path d="M 5,7 L9,13 L1,7 L9,1 Z"></path></marker></defs><defs><marker id="dependencyEnd" refX="19" refY="7" markerWidth="20" markerHeight="28" orient="auto"><path d="M 18,7 L9,13 L14,7 L9,1 Z"></path></marker></defs><g id="classid-Game-3056" class="classGroup" transform="translate(162.05859375,0 )"><rect x="0" y="0" width="111.765625" height="108" class=" "></rect><text y="15" x="0"><tspan class="title" x="40.765625">Game</tspan></text><line x1="0" y1="21" y2="21" x2="111.765625"></line><text x="5" y="31" fill="white" class="classText"><tspan x="5">-int score</tspan><tspan x="5" dy="10">-int limite</tspan></text><line x1="0" y1="47" y2="47" x2="111.765625"></line><text x="5" y="62" fill="white" class="classText"><tspan x="5">+void nextTurn</tspan><tspan x="5" dy="10">+void isLimitReached</tspan><tspan x="5" dy="10">+void noBlockLeft</tspan><tspan x="5" dy="10">+init()</tspan><tspan x="5" dy="10">+endGame()</tspan></text></g><g id="classid-Player-3057" class="classGroup" transform="translate(0,196.5 )"><rect x="0" y="0" width="74.6875" height="41" class=" "></rect><text y="15" x="0"><tspan class="title" x="21.2734375">Player</tspan></text><line x1="0" y1="21" y2="21" x2="74.6875"></line><text x="5" y="31" fill="white" class="classText"><tspan x="5">-String name</tspan></text><line x1="0" y1="37" y2="37" x2="74.6875"></line><text x="5" y="52" fill="white" class="classText"></text></g><g id="classid-Map-3058" class="classGroup" transform="translate(124.6875,196.5 )"><rect x="0" y="0" width="77.203125" height="41" class=" "></rect><text y="15" x="0"><tspan class="title" x="27.6484375">Map</tspan></text><line x1="0" y1="21" y2="21" x2="77.203125"></line><text x="5" y="31" fill="white" class="classText"><tspan x="5">+String name</tspan></text><line x1="0" y1="37" y2="37" x2="77.203125"></line><text x="5" y="52" fill="white" class="classText"></text></g><g id="classid-Tile-3059" class="classGroup" transform="translate(119.8046875,326 )"><rect x="0" y="0" width="86.96875" height="67" class=" "></rect><text y="15" x="0"><tspan x="17.5234375">«interface»</tspan><tspan class="title" dy="10" x="33.734375">Tile</tspan></text><line x1="0" y1="31" y2="31" x2="86.96875"></line><text x="5" y="41" fill="white" class="classText"></text><line x1="0" y1="36" y2="36" x2="86.96875"></line><text x="5" y="51" fill="white" class="classText"><tspan x="5">+putBlock()</tspan><tspan x="5" dy="10">+removeBlcok()</tspan></text></g><g id="classid-Grass-3060" class="classGroup" transform="translate(83.10546875,443 )"><rect x="0" y="0" width="40.796875" height="30" class=" "></rect><text y="15" x="0"><tspan class="title" x="5">Grass</tspan></text><line x1="0" y1="21" y2="21" x2="40.796875"></line><text x="5" y="31" fill="white" class="classText"></text><line x1="0" y1="26" y2="26" x2="40.796875"></line><text x="5" y="41" fill="white" class="classText"></text></g><g id="classid-Tree-3061" class="classGroup" transform="translate(173.90234375,443 )"><rect x="0" y="0" width="33.015625" height="30" class=" "></rect><text y="15" x="0"><tspan class="title" x="5">Tree</tspan></text><line x1="0" y1="21" y2="21" x2="33.015625"></line><text x="5" y="31" fill="white" class="classText"></text><line x1="0" y1="26" y2="26" x2="33.015625"></line><text x="5" y="41" fill="white" class="classText"></text></g><g id="classid-Water-3062" class="classGroup" transform="translate(363.1796875,443 )"><rect x="0" y="0" width="39.53125" height="30" class=" "></rect><text y="15" x="0"><tspan class="title" x="5">Water</tspan></text><line x1="0" y1="21" y2="21" x2="39.53125"></line><text x="5" y="31" fill="white" class="classText"></text><line x1="0" y1="26" y2="26" x2="39.53125"></line><text x="5" y="41" fill="white" class="classText"></text></g><g id="classid-Block-3063" class="classGroup" transform="translate(222,523 )"><rect x="0" y="0" width="93.65625" height="68" class=" "></rect><text y="15" x="0"><tspan x="22.2578125">«abstract»</tspan><tspan class="title" dy="10" x="31.984375">Block</tspan></text><line x1="0" y1="31" y2="31" x2="93.65625"></line><text x="5" y="41" fill="white" class="classText"><tspan x="5">-int radius</tspan></text><line x1="0" y1="47" y2="47" x2="93.65625"></line><text x="5" y="62" fill="white" class="classText"><tspan x="5">+computeScore()</tspan></text></g><g id="classid-House-3064" class="classGroup" transform="translate(139.703125,641 )"><rect x="0" y="0" width="43" height="30" class=" "></rect><text y="15" x="0"><tspan class="title" x="5">House</tspan></text><line x1="0" y1="21" y2="21" x2="43"></line><text x="5" y="31" fill="white" class="classText"></text><line x1="0" y1="26" y2="26" x2="43"></line><text x="5" y="41" fill="white" class="classText"></text></g><g id="classid-Circus-3065" class="classGroup" transform="translate(232.703125,641 )"><rect x="0" y="0" width="43.5625" height="30" class=" "></rect><text y="15" x="0"><tspan class="title" x="5">Circus</tspan></text><line x1="0" y1="21" y2="21" x2="43.5625"></line><text x="5" y="31" fill="white" class="classText"></text><line x1="0" y1="26" y2="26" x2="43.5625"></line><text x="5" y="41" fill="white" class="classText"></text></g><g id="classid-Fountain-3066" class="classGroup" transform="translate(326.265625,641 )"><rect x="0" y="0" width="54.109375" height="30" class=" "></rect><text y="15" x="0"><tspan class="title" x="5">Fountain</tspan></text><line x1="0" y1="21" y2="21" x2="54.109375"></line><text x="5" y="31" fill="white" class="classText"></text><line x1="0" y1="26" y2="26" x2="54.109375"></line><text x="5" y="41" fill="white" class="classText"></text></g><g id="classid-WindTurbine-3067" class="classGroup" transform="translate(430.375,641 )"><rect x="0" y="0" width="72.71875" height="30" class=" "></rect><text y="15" x="0"><tspan class="title" x="5">WindTurbine</tspan></text><line x1="0" y1="21" y2="21" x2="72.71875"></line><text x="5" y="31" fill="white" class="classText"></text><line x1="0" y1="26" y2="26" x2="72.71875"></line><text x="5" y="41" fill="white" class="classText"></text></g><g id="classid-Command-3068" class="classGroup" transform="translate(518.015625,10.5 )"><rect x="0" y="0" width="110.265625" height="87" class=" "></rect><text y="15" x="0"><tspan x="29.171875">«interface»</tspan><tspan class="title" dy="10" x="29.734375">Command</tspan></text><line x1="0" y1="31" y2="31" x2="110.265625"></line><text x="5" y="41" fill="white" class="classText"></text><line x1="0" y1="36" y2="36" x2="110.265625"></line><text x="5" y="51" fill="white" class="classText"><tspan x="5">+do()</tspan><tspan x="5" dy="10">+undo()</tspan><tspan x="5" dy="10">+done()</tspan><tspan x="5" dy="10">+isDone()</tspan></text></g><g id="classid-Undoable-3069" class="classGroup" transform="translate(360.53125,20.5 )"><rect x="0" y="0" width="107.484375" height="67" class=" "></rect><text y="15" x="0"><tspan x="27.78125">«interface»</tspan><tspan class="title" dy="10" x="29.734375">Undoable</tspan></text><line x1="0" y1="31" y2="31" x2="107.484375"></line><text x="5" y="41" fill="white" class="classText"></text><line x1="0" y1="36" y2="36" x2="107.484375"></line><text x="5" y="51" fill="white" class="classText"><tspan x="5">+undo()</tspan><tspan x="5" dy="10">+redo()</tspan></text></g><g id="classid-PutBlock-3070" class="classGroup" transform="translate(251.890625,158 )"><rect x="0" y="0" width="85.328125" height="118" class=" "></rect><text y="15" x="0"><tspan class="title" x="19.7734375">PutBlock</tspan></text><line x1="0" y1="21" y2="21" x2="85.328125"></line><text x="5" y="31" fill="white" class="classText"><tspan x="5">-listUndo : List</tspan><tspan x="5" dy="10">-listRedo : List</tspan></text><line x1="0" y1="47" y2="47" x2="85.328125"></line><text x="5" y="62" fill="white" class="classText"><tspan x="5">+addUndoList()</tspan><tspan x="5" dy="10">+addRedoList()</tspan><tspan x="5" dy="10">+do()</tspan><tspan x="5" dy="10">+canDo()</tspan><tspan x="5" dy="10">+undo()</tspan><tspan x="5" dy="10">+redo()</tspan></text></g><g id="classid-MoveOneBlock-3071" class="classGroup" transform="translate(454.9453125,158 )"><rect x="0" y="0" width="85.328125" height="118" class=" "></rect><text y="15" x="0"><tspan class="title" x="5.3203125">MoveOneBlock</tspan></text><line x1="0" y1="21" y2="21" x2="85.328125"></line><text x="5" y="31" fill="white" class="classText"><tspan x="5">-listUndo : List</tspan><tspan x="5" dy="10">-listRedo : List</tspan></text><line x1="0" y1="47" y2="47" x2="85.328125"></line><text x="5" y="62" fill="white" class="classText"><tspan x="5">+addUndoList()</tspan><tspan x="5" dy="10">+addRedoList()</tspan><tspan x="5" dy="10">+do()</tspan><tspan x="5" dy="10">+canDo()</tspan><tspan x="5" dy="10">+undo()</tspan><tspan x="5" dy="10">+redo()</tspan></text></g><path d="M162.05859375,78.44517984989076L141.27278645833334,87.53764987490898C120.48697916666667,96.63011989992718,78.91536458333333,114.8150599499636,58.129557291666664,134.49086330831514C37.34375,154.16666666666666,37.34375,175.33333333333334,37.34375,185.91666666666666L37.34375,196.5" id="edge1900" class="relation" marker-start="url(#compositionStart)"></path><g class="cardinality"><text class="type2" x="42.34375" y="184" fill="black" font-size="6">1</text></g><path d="M180.58410799050634,108L177.7016004087553,112.16666666666667C174.81909282700425,116.33333333333333,169.0540776635021,124.66666666666667,166.17157008175107,139.41666666666666C163.2890625,154.16666666666666,163.2890625,175.33333333333334,163.2890625,185.91666666666666L163.2890625,196.5" id="edge1901" class="relation" marker-start="url(#compositionStart)"></path><g class="cardinality"><text class="type2" x="168.2890625" y="184" fill="black" font-size="6">1</text></g><path d="M163.2890625,237.5L163.2890625,248.08333333333334C163.2890625,258.6666666666667,163.2890625,279.8333333333333,163.2890625,294.5833333333333C163.2890625,309.3333333333333,163.2890625,317.6666666666667,163.2890625,321.8333333333333L163.2890625,326" id="edge1902" class="relation" marker-end="url(#dependencyEnd)"></path><g class="classLabel"><rect class="box" x="143.109375" y="270.25" width="40.578125" height="16"></rect><text class="label" x="163.2890625" y="281.75" fill="red" text-anchor="middle">tilesList</text></g><g class="cardinality"><text class="type1" x="158.2890625" y="250" fill="black" font-size="6">1</text></g><g class="cardinality"><text class="type2" x="173.2890625" y="313.5" fill="black" font-size="6">100</text></g><path d="M129.05311832264957,393L124.7949163105413,397.1666666666667C120.53671429843304,401.3333333333333,112.02031027421651,409.6666666666667,107.76210826210826,418C103.50390625,426.3333333333333,103.50390625,434.6666666666667,103.50390625,438.8333333333333L103.50390625,443" id="edge1903" class="relation dashed-line" marker-start="url(#extensionStart)"></path><path d="M178.8199452457265,393L180.75164707977208,397.1666666666667C182.68334891381767,401.3333333333333,186.54675258190886,409.6666666666667,188.47845441595442,418C190.41015625,426.3333333333333,190.41015625,434.6666666666667,190.41015625,438.8333333333333L190.41015625,443" id="edge1904" class="relation dashed-line" marker-start="url(#extensionStart)"></path><path d="M206.7734375,371.08098591549293L236.13541666666666,378.90082159624416C265.4973958333333,386.72065727699527,324.2213541666667,402.3603286384976,353.5833333333333,414.34683098591546C382.9453125,426.3333333333333,382.9453125,434.6666666666667,382.9453125,438.8333333333333L382.9453125,443" id="edge1905" class="relation dashed-line" marker-start="url(#extensionStart)"></path><path d="M273.82421875,66.35473397684663L324.0657552083333,77.46227831403887C374.3072916666667,88.56982265123109,474.7903645833333,110.78491132561555,525.0319010416666,135.89245566280778C575.2734375,161,575.2734375,189,575.2734375,217C575.2734375,245,575.2734375,273,575.2734375,296.75C575.2734375,320.5,575.2734375,340,575.2734375,359.5C575.2734375,379,575.2734375,398.5,575.2734375,414.9166666666667C575.2734375,431.3333333333333,575.2734375,444.6666666666667,575.2734375,458C575.2734375,471.3333333333333,575.2734375,484.6666666666667,532.00390625,499.66402804333967C488.734375,514.6613894200127,402.1953125,531.3227788400255,358.92578125,539.6534735500319L315.65625,547.9841682600382" id="edge1906" class="relation" marker-end="url(#dependencyEnd)"></path><g class="classLabel"><rect class="box" x="549.8125" y="281.828125" width="51.140625" height="16.015625"></rect><text class="label" x="575.2734375" y="293.3283705489148" fill="red" text-anchor="middle">blocksList</text></g><g class="cardinality"><text class="type1" x="284.9501434795231" y="73.93522201608171" fill="black" font-size="6">1</text></g><g class="cardinality"><text class="type2" x="329.82140526039854" y="555.4406001445795" fill="black" font-size="6">*</text></g><path d="M222,582.6711672473867L211.8671875,588.2259727061556C201.734375,593.7807781649245,181.46875,604.8903890824622,171.3359375,614.6118612078977C161.203125,624.3333333333334,161.203125,632.6666666666666,161.203125,636.8333333333334L161.203125,641" id="edge1907" class="relation dashed-line" marker-start="url(#extensionStart)"></path><path d="M260.56223516949154,591L259.5492584745763,595.1666666666666C258.536281779661,599.3333333333334,256.5103283898305,607.6666666666666,255.49735169491524,616C254.484375,624.3333333333334,254.484375,632.6666666666666,254.484375,636.8333333333334L254.484375,641" id="edge1908" class="relation dashed-line" marker-start="url(#extensionStart)"></path><path d="M315.65625,589.6995839112344L321.93359375,594.0829865926953C328.2109375,598.4663892741563,340.765625,607.2331946370781,347.04296875,615.7832639852057C353.3203125,624.3333333333334,353.3203125,632.6666666666666,353.3203125,636.8333333333334L353.3203125,641" id="edge1909" class="relation dashed-line" marker-start="url(#extensionStart)"></path><path d="M315.65625,570.960445286594L340.8359375,578.4670377388284C366.015625,585.9736301910626,416.375,600.9868150955314,441.5546875,612.6600742144324C466.734375,624.3333333333334,466.734375,632.6666666666666,466.734375,636.8333333333334L466.734375,641" id="edge1910" class="relation dashed-line" marker-start="url(#extensionStart)"></path><path d="M103.50390625,473L103.50390625,477.1666666666667C103.50390625,481.3333333333333,103.50390625,489.6666666666667,123.25325520833333,500.88137261851324C143.00260416666666,512.0960785703597,182.50130208333334,526.1921571407194,202.25065104166666,533.2401964258993L222,540.2882357110791" id="edge1911" class="relation" marker-start="url(#compositionStart)"></path><g class="cardinality"><text class="type1" x="93.50390625" y="485.5" fill="black" font-size="6">1</text></g><g class="cardinality"><text class="type2" x="211.90778702214823" y="531.3777229755693" fill="black" font-size="6">1</text></g><path d="M518.015625,75.8697238349286L494.01171875,85.39143652910718C470.0078125,94.91314922328574,422,113.95657461164286,391.8671875,129.95920784083324C361.734375,145.9618410700236,349.4765625,158.9236821400472,343.34765625,165.404602675059L337.21875,171.8855232100708" id="edge1912" class="relation dashed-line" marker-start="url(#extensionStart)"></path><path d="M360.53125,79.67639971651312L341.9296875,88.56366643042759C323.328125,97.45093314434207,286.125,115.22546657217104,269.7869698660714,128.2793999527522C253.44893973214286,141.33333333333334,257.9760044642857,149.66666666666666,260.2395368303571,153.83333333333334L262.50306919642856,158" id="edge1913" class="relation dashed-line" marker-start="url(#extensionStart)"></path><path d="M225.4470431170886,108L226.0261817642405,112.16666666666667C226.6053204113924,116.33333333333333,227.76359770569618,124.66666666666667,232.1708613528481,133.73275006943618C236.578125,142.7988334722057,244.234375,152.59766694441137,248.0625,157.49708368051424L251.890625,162.39650041661707" id="edge1914" class="relation" marker-start="url(#compositionStart)"></path><path d="M547.4300089003165,97.5L543.931908458597,103.41666666666667C540.4338080168776,109.33333333333333,533.4376071334387,121.16666666666667,528.5093464114615,131.25C523.5810856894841,141.33333333333334,520.7207651289683,149.66666666666666,519.2906048487104,153.83333333333334L517.8604445684524,158" id="edge1915" class="relation dashed-line" marker-start="url(#extensionStart)"></path><path d="M415.9265723892405,87.5L416.30078949103375,95.08333333333333C416.675006592827,102.66666666666667,417.42344079641344,117.83333333333333,423.92656414820675,131.89758720167848C430.4296875,145.9618410700236,442.6875,158.9236821400472,448.81640625,165.404602675059L454.9453125,171.8855232100708" id="edge1916" class="relation dashed-line" marker-start="url(#extensionStart)"></path><path d="M273.82421875,79.07652710288669L293.8522135416667,88.0637725857389C313.8802083333333,97.05101806859113,353.9361979166667,115.02550903429557,384.123046875,132.2482970037647C414.3098958333333,149.47108497323381,434.6276041666667,165.9421699464676,444.7864583333333,174.1777124330845L454.9453125,182.41325491970142" id="edge1917" class="relation" marker-start="url(#compositionStart)"></path></svg>